<svg data-v-29081953="" xmlns="http://www.w3.org/2000/svg" viewBox="0 0 300 300"><!----><defs data-v-29081953=""><linearGradient data-v-29081953="" gradientTransform="rotate(25)" id="f4a6a236-23e8-4daa-ae5a-224024c33e58" x1="0%" y1="0%" x2="100%" y2="0%"><stop data-v-29081953="" offset="0%" stop-color="#F05000" stop-opacity="1"></stop><stop data-v-29081953="" offset="100%" stop-color="#F7AA00" stop-opacity="1"></stop></linearGradient></defs><rect data-v-29081953="" fill="url(#f4a6a236-23e8-4daa-ae5a-224024c33e58)" x="0" y="0" width="300px" height="300px" class="logo-background-square"></rect><defs data-v-29081953=""><!----></defs><g data-v-29081953="" id="4b2f72a5-0295-4d37-9ac0-e52fb90d74bc" fill="#ffffff" transform="matrix(2.509879628835446,0,0,2.509879628835446,109.45742520019517,115.31533375465906)"><path d="M8.60 10.46L8.60 13.31L8.60 13.31Q8.60 13.75 8.44 13.96L8.44 13.96L8.44 13.96Q8.29 14.17 7.95 14.36L7.95 14.36L7.95 14.36Q7.76 14.48 7.46 14.58L7.46 14.58L7.46 14.58Q7.17 14.69 6.82 14.76L6.82 14.76L6.82 14.76Q6.47 14.84 6.08 14.88L6.08 14.88L6.08 14.88Q5.70 14.92 5.32 14.92L5.32 14.92L5.32 14.92Q4.31 14.92 3.43 14.65L3.43 14.65L3.43 14.65Q2.55 14.38 1.90 13.83L1.90 13.83L1.90 13.83Q1.25 13.27 0.87 12.45L0.87 12.45L0.87 12.45Q0.49 11.62 0.49 10.53L0.49 10.53L0.49 10.53Q0.49 9.38 0.90 8.53L0.90 8.53L0.90 8.53Q1.32 7.67 2.00 7.11L2.00 7.11L2.00 7.11Q2.67 6.54 3.55 6.26L3.55 6.26L3.55 6.26Q4.42 5.98 5.35 5.98L5.35 5.98L5.35 5.98Q6.68 5.98 7.46 6.41L7.46 6.41L7.46 6.41Q8.23 6.83 8.23 7.52L8.23 7.52L8.23 7.52Q8.23 7.88 8.05 8.15L8.05 8.15L8.05 8.15Q7.87 8.41 7.63 8.57L7.63 8.57L7.63 8.57Q7.28 8.36 6.75 8.16L6.75 8.16L6.75 8.16Q6.23 7.95 5.57 7.95L5.57 7.95L5.57 7.95Q4.40 7.95 3.70 8.62L3.70 8.62L3.70 8.62Q3.01 9.30 3.01 10.49L3.01 10.49L3.01 10.49Q3.01 11.13 3.20 11.60L3.20 11.60L3.20 11.60Q3.39 12.07 3.71 12.37L3.71 12.37L3.71 12.37Q4.03 12.67 4.45 12.82L4.45 12.82L4.45 12.82Q4.87 12.96 5.35 12.96L5.35 12.96L5.35 12.96Q5.66 12.96 5.89 12.91L5.89 12.91L5.89 12.91Q6.13 12.85 6.26 12.78L6.26 12.78L6.26 11.47L4.76 11.47L4.76 11.47Q4.68 11.31 4.60 11.06L4.60 11.06L4.60 11.06Q4.52 10.81 4.52 10.53L4.52 10.53L4.52 10.53Q4.52 10.02 4.75 9.80L4.75 9.80L4.75 9.80Q4.98 9.58 5.35 9.58L5.35 9.58L7.71 9.58L7.71 9.58Q8.13 9.58 8.37 9.81L8.37 9.81L8.37 9.81Q8.60 10.04 8.60 10.46L8.60 10.46ZM9.97 6.01L9.97 6.01L9.97 6.01Q9.97 5.47 10.32 5.11L10.32 5.11L10.32 5.11Q10.68 4.75 11.27 4.75L11.27 4.75L11.27 4.75Q11.86 4.75 12.21 5.11L12.21 5.11L12.21 5.11Q12.57 5.47 12.57 6.01L12.57 6.01L12.57 6.01Q12.57 6.54 12.21 6.90L12.21 6.90L12.21 6.90Q11.86 7.27 11.27 7.27L11.27 7.27L11.27 7.27Q10.68 7.27 10.32 6.90L10.32 6.90L10.32 6.90Q9.97 6.54 9.97 6.01ZM12.46 8.99L12.46 14.69L12.46 14.69Q12.31 14.71 12.00 14.76L12.00 14.76L12.00 14.76Q11.70 14.81 11.40 14.81L11.40 14.81L11.40 14.81Q11.09 14.81 10.84 14.77L10.84 14.77L10.84 14.77Q10.60 14.73 10.43 14.60L10.43 14.60L10.43 14.60Q10.26 14.48 10.17 14.26L10.17 14.26L10.17 14.26Q10.08 14.04 10.08 13.69L10.08 13.69L10.08 7.99L10.08 7.99Q10.23 7.97 10.54 7.92L10.54 7.92L10.54 7.92Q10.84 7.87 11.14 7.87L11.14 7.87L11.14 7.87Q11.45 7.87 11.70 7.91L11.70 7.91L11.70 7.91Q11.94 7.95 12.11 8.08L12.11 8.08L12.11 8.08Q12.28 8.20 12.37 8.42L12.37 8.42L12.37 8.42Q12.46 8.64 12.46 8.99L12.46 8.99ZM16.35 10.25L16.35 12.36L16.35 12.36Q16.35 12.73 16.58 12.88L16.58 12.88L16.58 12.88Q16.81 13.03 17.23 13.03L17.23 13.03L17.23 13.03Q17.44 13.03 17.67 13.00L17.67 13.00L17.67 13.00Q17.89 12.96 18.06 12.91L18.06 12.91L18.06 12.91Q18.19 13.06 18.28 13.25L18.28 13.25L18.28 13.25Q18.37 13.44 18.37 13.71L18.37 13.71L18.37 13.71Q18.37 14.24 17.97 14.57L17.97 14.57L17.97 14.57Q17.57 14.91 16.56 14.91L16.56 14.91L16.56 14.91Q15.33 14.91 14.66 14.35L14.66 14.35L14.66 14.35Q14 13.79 14 12.53L14 12.53L14 6.54L14 6.54Q14.15 6.50 14.44 6.45L14.44 6.45L14.44 6.45Q14.73 6.40 15.05 6.40L15.05 6.40L15.05 6.40Q15.67 6.40 16.01 6.62L16.01 6.62L16.01 6.62Q16.35 6.83 16.35 7.53L16.35 7.53L16.35 8.43L18.19 8.43L18.19 8.43Q18.27 8.58 18.35 8.81L18.35 8.81L18.35 8.81Q18.42 9.04 18.42 9.32L18.42 9.32L18.42 9.32Q18.42 9.81 18.21 10.03L18.21 10.03L18.21 10.03Q17.99 10.25 17.63 10.25L17.63 10.25L16.35 10.25ZM23.17 14.92L23.17 14.92L23.17 14.92Q22.34 14.92 21.64 14.69L21.64 14.69L21.64 14.69Q20.93 14.46 20.41 14.00L20.41 14.00L20.41 14.00Q19.88 13.54 19.58 12.84L19.58 12.84L19.58 12.84Q19.28 12.14 19.28 11.20L19.28 11.20L19.28 11.20Q19.28 10.28 19.58 9.61L19.58 9.61L19.58 9.61Q19.88 8.95 20.37 8.52L20.37 8.52L20.37 8.52Q20.86 8.09 21.49 7.89L21.49 7.89L21.49 7.89Q22.12 7.69 22.78 7.69L22.78 7.69L22.78 7.69Q23.52 7.69 24.13 7.91L24.13 7.91L24.13 7.91Q24.74 8.13 25.18 8.53L25.18 8.53L25.18 8.53Q25.62 8.92 25.87 9.46L25.87 9.46L25.87 9.46Q26.11 10.01 26.11 10.65L26.11 10.65L26.11 10.65Q26.11 11.13 25.84 11.38L25.84 11.38L25.84 11.38Q25.58 11.63 25.10 11.70L25.10 11.70L21.64 12.22L21.64 12.22Q21.80 12.68 22.27 12.92L22.27 12.92L22.27 12.92Q22.75 13.15 23.37 13.15L23.37 13.15L23.37 13.15Q23.94 13.15 24.45 13.00L24.45 13.00L24.45 13.00Q24.96 12.85 25.28 12.66L25.28 12.66L25.28 12.66Q25.51 12.80 25.66 13.05L25.66 13.05L25.66 13.05Q25.82 13.30 25.82 13.58L25.82 13.58L25.82 13.58Q25.82 14.21 25.23 14.52L25.23 14.52L25.23 14.52Q24.78 14.76 24.22 14.84L24.22 14.84L24.22 14.84Q23.66 14.92 23.17 14.92ZM22.78 9.42L22.78 9.42L22.78 9.42Q22.44 9.42 22.20 9.53L22.20 9.53L22.20 9.53Q21.95 9.65 21.80 9.82L21.80 9.82L21.80 9.82Q21.64 10.00 21.57 10.21L21.57 10.21L21.57 10.21Q21.49 10.43 21.48 10.65L21.48 10.65L23.87 10.26L23.87 10.26Q23.83 9.98 23.56 9.70L23.56 9.70L23.56 9.70Q23.30 9.42 22.78 9.42ZM29.64 9.91L29.64 14.69L29.64 14.69Q29.50 14.73 29.20 14.77L29.20 14.77L29.20 14.77Q28.90 14.81 28.57 14.81L28.57 14.81L28.57 14.81Q28.27 14.81 28.02 14.77L28.02 14.77L28.02 14.77Q27.78 14.73 27.61 14.60L27.61 14.60L27.61 14.60Q27.44 14.48 27.35 14.26L27.35 14.26L27.35 14.26Q27.26 14.04 27.26 13.69L27.26 13.69L27.26 9.49L27.26 9.49Q27.26 9.17 27.38 8.94L27.38 8.94L27.38 8.94Q27.50 8.71 27.72 8.53L27.72 8.53L27.72 8.53Q27.94 8.34 28.27 8.20L28.27 8.20L28.27 8.20Q28.60 8.05 28.98 7.94L28.98 7.94L28.98 7.94Q29.36 7.83 29.76 7.76L29.76 7.76L29.76 7.76Q30.17 7.70 30.58 7.70L30.58 7.70L30.58 7.70Q31.25 7.70 31.64 7.96L31.64 7.96L31.64 7.96Q32.03 8.22 32.03 8.81L32.03 8.81L32.03 8.81Q32.03 9.00 31.98 9.19L31.98 9.19L31.98 9.19Q31.92 9.38 31.84 9.53L31.84 9.53L31.84 9.53Q31.54 9.53 31.23 9.56L31.23 9.56L31.23 9.56Q30.93 9.59 30.63 9.65L30.63 9.65L30.63 9.65Q30.34 9.70 30.08 9.77L30.08 9.77L30.08 9.77Q29.82 9.83 29.64 9.91L29.64 9.91ZM38.43 8.01L38.43 12.88L38.43 12.88Q38.58 12.91 38.81 12.93L38.81 12.93L38.81 12.93Q39.03 12.95 39.23 12.95L39.23 12.95L39.23 12.95Q39.70 12.95 40.10 12.81L40.10 12.81L40.10 12.81Q40.50 12.67 40.79 12.38L40.79 12.38L40.79 12.38Q41.08 12.08 41.24 11.61L41.24 11.61L41.24 11.61Q41.40 11.14 41.40 10.49L41.40 10.49L41.40 10.49Q41.40 9.23 40.81 8.59L40.81 8.59L40.81 8.59Q40.22 7.95 39.24 7.95L39.24 7.95L39.24 7.95Q39.05 7.95 38.84 7.97L38.84 7.97L38.84 7.97Q38.64 7.98 38.43 8.01L38.43 8.01ZM39.21 14.92L39.21 14.92L39.21 14.92Q38.98 14.92 38.67 14.91L38.67 14.91L38.67 14.91Q38.36 14.90 38.03 14.85L38.03 14.85L38.03 14.85Q37.70 14.81 37.37 14.75L37.37 14.75L37.37 14.75Q37.04 14.69 36.76 14.57L36.76 14.57L36.76 14.57Q35.99 14.28 35.99 13.55L35.99 13.55L35.99 7.01L35.99 7.01Q35.99 6.72 36.15 6.56L36.15 6.56L36.15 6.56Q36.32 6.40 36.60 6.30L36.60 6.30L36.60 6.30Q37.20 6.10 37.87 6.04L37.87 6.04L37.87 6.04Q38.54 5.98 39.07 5.98L39.07 5.98L39.07 5.98Q40.17 5.98 41.05 6.24L41.05 6.24L41.05 6.24Q41.94 6.51 42.58 7.06L42.58 7.06L42.58 7.06Q43.22 7.62 43.57 8.46L43.57 8.46L43.57 8.46Q43.92 9.30 43.92 10.44L43.92 10.44L43.92 10.44Q43.92 11.56 43.58 12.40L43.58 12.40L43.58 12.40Q43.25 13.23 42.62 13.80L42.62 13.80L42.62 13.80Q42 14.36 41.13 14.64L41.13 14.64L41.13 14.64Q40.26 14.92 39.21 14.92ZM45.14 12.00L45.14 7.99L45.14 7.99Q45.28 7.95 45.58 7.91L45.58 7.91L45.58 7.91Q45.88 7.87 46.20 7.87L46.20 7.87L46.20 7.87Q46.51 7.87 46.75 7.91L46.75 7.91L46.75 7.91Q47.00 7.95 47.17 8.08L47.17 8.08L47.17 8.08Q47.33 8.20 47.42 8.42L47.42 8.42L47.42 8.42Q47.52 8.64 47.52 8.99L47.52 8.99L47.52 12.00L47.52 12.00Q47.52 12.57 47.80 12.82L47.80 12.82L47.80 12.82Q48.08 13.06 48.61 13.06L48.61 13.06L48.61 13.06Q48.93 13.06 49.13 13.01L49.13 13.01L49.13 13.01Q49.34 12.95 49.45 12.89L49.45 12.89L49.45 7.99L49.45 7.99Q49.59 7.95 49.89 7.91L49.89 7.91L49.89 7.91Q50.19 7.87 50.51 7.87L50.51 7.87L50.51 7.87Q50.82 7.87 51.06 7.91L51.06 7.91L51.06 7.91Q51.31 7.95 51.48 8.08L51.48 8.08L51.48 8.08Q51.65 8.20 51.74 8.42L51.74 8.42L51.74 8.42Q51.83 8.64 51.83 8.99L51.83 8.99L51.83 13.24L51.83 13.24Q51.83 13.94 51.24 14.29L51.24 14.29L51.24 14.29Q50.75 14.60 50.07 14.76L50.07 14.76L50.07 14.76Q49.39 14.92 48.59 14.92L48.59 14.92L48.59 14.92Q47.84 14.92 47.20 14.76L47.20 14.76L47.20 14.76Q46.56 14.59 46.10 14.24L46.10 14.24L46.10 14.24Q45.64 13.89 45.39 13.34L45.39 13.34L45.39 13.34Q45.14 12.78 45.14 12.00L45.14 12.00ZM57.60 13.69L57.60 10.39L57.60 10.39Q57.60 9.95 57.35 9.75L57.35 9.75L57.35 9.75Q57.11 9.55 56.69 9.55L56.69 9.55L56.69 9.55Q56.41 9.55 56.13 9.62L56.13 9.62L56.13 9.62Q55.86 9.69 55.66 9.83L55.66 9.83L55.66 14.69L55.66 14.69Q55.52 14.73 55.22 14.77L55.22 14.77L55.22 14.77Q54.92 14.81 54.60 14.81L54.60 14.81L54.60 14.81Q54.29 14.81 54.05 14.77L54.05 14.77L54.05 14.77Q53.80 14.73 53.63 14.60L53.63 14.60L53.63 14.60Q53.47 14.48 53.38 14.26L53.38 14.26L53.38 14.26Q53.28 14.04 53.28 13.69L53.28 13.69L53.28 9.49L53.28 9.49Q53.28 9.11 53.45 8.88L53.45 8.88L53.45 8.88Q53.61 8.64 53.89 8.44L53.89 8.44L53.89 8.44Q54.36 8.11 55.08 7.90L55.08 7.90L55.08 7.90Q55.80 7.69 56.69 7.69L56.69 7.69L56.69 7.69Q58.27 7.69 59.12 8.38L59.12 8.38L59.12 8.38Q59.98 9.07 59.98 10.30L59.98 10.30L59.98 14.69L59.98 14.69Q59.84 14.73 59.53 14.77L59.53 14.77L59.53 14.77Q59.23 14.81 58.91 14.81L58.91 14.81L58.91 14.81Q58.60 14.81 58.36 14.77L58.36 14.77L58.36 14.77Q58.11 14.73 57.95 14.60L57.95 14.60L57.95 14.60Q57.78 14.48 57.69 14.26L57.69 14.26L57.69 14.26Q57.60 14.04 57.60 13.69L57.60 13.69Z"></path></g><defs data-v-29081953=""><!----></defs><g data-v-29081953="" id="ef638fbb-6cf0-4b1e-9f61-f4849e807e7f" stroke="none" fill="#ffffff" transform="matrix(0.74006424834479,0,0,0.74006424834479,31.840050875031352,112.99641845968131)"><path d="M60.559 64.784l13.677-.04v-14.37l-13.717.042.04 14.368zm2.143-4.191c.047 0 .086.021.132.025l1.686-3.999a1.14 1.14 0 0 1-.439-.886 1.154 1.154 0 1 1 2.309 0c0 .116-.034.222-.067.328l2.782 1.801c.201-.169.451-.282.734-.282.059 0 .108.024.164.033l1.38-3.312a1.132 1.132 0 0 1-.443-.889 1.154 1.154 0 1 1 1.153 1.155c-.045 0-.084-.021-.126-.025l-1.385 3.327c.248.211.412.515.412.865a1.155 1.155 0 1 1-2.31 0c0-.123.035-.233.069-.344l-2.769-1.796c-.203.178-.46.294-.75.294-.047 0-.087-.021-.132-.028l-1.685 4.003c.262.211.439.522.439.885a1.154 1.154 0 1 1-1.154-1.155z"></path><path d="M50 11.026c-21.525 0-38.974 17.449-38.974 38.974 0 12.283 5.688 23.232 14.567 30.376l-14.567 8.599H50c21.525 0 38.975-17.449 38.975-38.975 0-21.525-17.452-38.974-38.975-38.974zM38.109 66.14c-8.917 0-16.147-7.229-16.147-16.147 0-.699.049-1.387.135-2.062l5.596.839a10.51 10.51 0 0 0-.077 1.223c0 5.794 4.698 10.493 10.493 10.493 2.059 0 3.974-.601 5.593-1.624l3.171 4.689a16.064 16.064 0 0 1-8.764 2.589zm9.32-2.978l-3.174-4.692a10.476 10.476 0 0 0 4.33-8.152h5.664c-.11 5.305-2.778 9.981-6.82 12.844zm1.156-13.506C48.407 44.018 43.792 39.5 38.109 39.5c-5.15 0-9.424 3.713-10.314 8.605l-5.599-.839c1.296-7.62 7.926-13.421 15.914-13.421 8.805 0 15.959 7.049 16.14 15.812h-5.665zm27.169 15.128a1.48 1.48 0 0 1-1.479 1.479H60.519a1.48 1.48 0 0 1-1.478-1.479v-14.41a1.48 1.48 0 0 1 1.478-1.478h13.757a1.48 1.48 0 0 1 1.479 1.478v14.41zm-.76-18.496H59.8a.76.76 0 0 1 0-1.519h15.194a.76.76 0 1 1 0 1.519zm0-3.657H59.8a.76.76 0 0 1 0-1.52h15.194a.76.76 0 1 1 0 1.52zm0-3.658H59.8a.76.76 0 0 1 0-1.52h15.194a.76.76 0 1 1 0 1.52zm0-3.658H59.8a.76.76 0 0 1 0-1.52h15.194a.76.76 0 1 1 0 1.52z"></path></g><defs data-v-29081953=""><!----></defs><g data-v-29081953="" id="7b4b4bd6-0e42-480e-a5df-504b02f9940f" fill="#ffffff" transform="matrix(0.7442564918343347,0,0,0.7442564918343347,109.84625641003672,161.1997994464983)"><path d="M5.04 2.21L1.13 2.21L1.13 11.48L5.04 11.48C7.25 11.48 9.30 9.74 9.30 6.85C9.30 3.95 7.25 2.21 5.04 2.21ZM5.00 10.49L2.18 10.49L2.18 3.21L5.00 3.21C6.97 3.21 8.25 4.86 8.25 6.85C8.25 8.83 6.97 10.49 5.00 10.49ZM21.97 2.21L20.65 2.21L16.72 11.48L17.88 11.48L19.01 8.79L23.60 8.79L24.74 11.48L25.90 11.48ZM19.42 7.83L21.31 3.30L23.20 7.83ZM39.83 2.21L32.31 2.21L32.31 3.22L35.55 3.22L35.55 11.48L36.60 11.48L36.60 3.22L39.83 3.22ZM51.49 2.21L50.18 2.21L46.24 11.48L47.40 11.48L48.54 8.79L53.13 8.79L54.26 11.48L55.43 11.48ZM48.94 7.83L50.83 3.30L52.72 7.83ZM77.49 2.21L73.58 2.21L73.58 11.48L77.49 11.48C79.70 11.48 81.75 9.74 81.75 6.85C81.75 3.95 79.70 2.21 77.49 2.21ZM77.45 10.49L74.63 10.49L74.63 3.21L77.45 3.21C79.42 3.21 80.70 4.86 80.70 6.85C80.70 8.83 79.42 10.49 77.45 10.49ZM97.16 2.21L97.16 7.52C97.16 9.67 95.73 10.57 94.26 10.57C92.79 10.57 91.38 9.67 91.38 7.52L91.38 2.21L90.33 2.21L90.33 7.49C90.33 9.95 91.95 11.59 94.26 11.59C96.59 11.59 98.21 9.94 98.21 7.49L98.21 2.21ZM114.31 2.21L114.31 10.01L108.58 2.21L107.37 2.21L107.37 11.48L108.42 11.48L108.42 3.65L114.14 11.48L115.36 11.48L115.36 2.21ZM135.66 7.92L138.88 7.92L141.12 11.48L142.37 11.48L139.93 7.74C140.97 7.50 142.17 6.90 142.17 5.11C142.17 3.35 140.95 2.21 139.05 2.21L134.61 2.21L134.61 11.48L135.66 11.48ZM135.66 3.21L138.92 3.21C140.24 3.21 141.12 3.93 141.12 5.11C141.12 6.55 139.86 6.93 138.87 6.93L135.66 6.93ZM152.03 2.21L150.98 2.21L150.98 11.48L152.03 11.48ZM165.27 2.10C162.48 2.10 160.71 4.21 160.71 6.85C160.71 9.48 162.41 11.59 165.24 11.59C166.92 11.59 168.01 10.74 168.60 9.84L168.60 11.48L169.57 11.48L169.57 6.55L165.21 6.55L165.21 7.50L168.60 7.50C168.60 9.44 167.01 10.57 165.33 10.57C163.07 10.57 161.76 8.93 161.76 6.85C161.76 4.76 163.10 3.12 165.35 3.12C166.77 3.12 167.78 3.74 168.34 4.73L169.48 4.73C168.80 3.18 167.26 2.10 165.27 2.10ZM184.86 2.21L184.86 6.33L179.47 6.33L179.47 2.21L178.42 2.21L178.42 11.48L179.47 11.48L179.47 7.35L184.86 7.35L184.86 11.48L185.91 11.48L185.91 2.21ZM201.75 2.21L194.24 2.21L194.24 3.22L197.47 3.22L197.47 11.48L198.52 11.48L198.52 3.22L201.75 3.22Z"></path></g></svg>