<svg data-v-d3f97b9e="" xmlns="http://www.w3.org/2000/svg" viewBox="0 0 60 60"><!----><!----><!----><!----><g data-v-d3f97b9e="" id="34d51159-9a9a-4265-a724-573e9c193e10" transform="matrix(0.769734081594561,0,0,0.769734081594561,-8.487088735355066,-8.487088954953762)" stroke="none" fill="black"><path d="M60.559 64.784l13.677-.04v-14.37l-13.717.042.04 14.368zm2.143-4.191c.047 0 .086.021.132.025l1.686-3.999a1.14 1.14 0 0 1-.439-.886 1.154 1.154 0 1 1 2.309 0c0 .116-.034.222-.067.328l2.782 1.801c.201-.169.451-.282.734-.282.059 0 .108.024.164.033l1.38-3.312a1.132 1.132 0 0 1-.443-.889 1.154 1.154 0 1 1 1.153 1.155c-.045 0-.084-.021-.126-.025l-1.385 3.327c.248.211.412.515.412.865a1.155 1.155 0 1 1-2.31 0c0-.123.035-.233.069-.344l-2.769-1.796c-.203.178-.46.294-.75.294-.047 0-.087-.021-.132-.028l-1.685 4.003c.262.211.439.522.439.885a1.154 1.154 0 1 1-1.154-1.155z"></path><path d="M50 11.026c-21.525 0-38.974 17.449-38.974 38.974 0 12.283 5.688 23.232 14.567 30.376l-14.567 8.599H50c21.525 0 38.975-17.449 38.975-38.975 0-21.525-17.452-38.974-38.975-38.974zM38.109 66.14c-8.917 0-16.147-7.229-16.147-16.147 0-.699.049-1.387.135-2.062l5.596.839a10.51 10.51 0 0 0-.077 1.223c0 5.794 4.698 10.493 10.493 10.493 2.059 0 3.974-.601 5.593-1.624l3.171 4.689a16.064 16.064 0 0 1-8.764 2.589zm9.32-2.978l-3.174-4.692a10.476 10.476 0 0 0 4.33-8.152h5.664c-.11 5.305-2.778 9.981-6.82 12.844zm1.156-13.506C48.407 44.018 43.792 39.5 38.109 39.5c-5.15 0-9.424 3.713-10.314 8.605l-5.599-.839c1.296-7.62 7.926-13.421 15.914-13.421 8.805 0 15.959 7.049 16.14 15.812h-5.665zm27.169 15.128a1.48 1.48 0 0 1-1.479 1.479H60.519a1.48 1.48 0 0 1-1.478-1.479v-14.41a1.48 1.48 0 0 1 1.478-1.478h13.757a1.48 1.48 0 0 1 1.479 1.478v14.41zm-.76-18.496H59.8a.76.76 0 0 1 0-1.519h15.194a.76.76 0 1 1 0 1.519zm0-3.657H59.8a.76.76 0 0 1 0-1.52h15.194a.76.76 0 1 1 0 1.52zm0-3.658H59.8a.76.76 0 0 1 0-1.52h15.194a.76.76 0 1 1 0 1.52zm0-3.658H59.8a.76.76 0 0 1 0-1.52h15.194a.76.76 0 1 1 0 1.52z"></path></g><!----></svg>